<svg width="128" height="128" viewBox="0 0 128 128" fill="none" xmlns="http://www.w3.org/2000/svg">
  <defs>
    <linearGradient id="card" x1="18" y1="14" x2="110" y2="114" gradientUnits="userSpaceOnUse">
      <stop stop-color="#F9FFF8"/>
      <stop offset="1" stop-color="#D7F4DF"/>
    </linearGradient>
    <linearGradient id="coin" x1="40" y1="24" x2="84" y2="62" gradientUnits="userSpaceOnUse">
      <stop stop-color="#FFE98D"/>
      <stop offset="1" stop-color="#F0B93D"/>
    </linearGradient>
    <linearGradient id="base" x1="38" y1="62" x2="88" y2="96" gradientUnits="userSpaceOnUse">
      <stop stop-color="#9FE0B1"/>
      <stop offset="1" stop-color="#67B67D"/>
    </linearGradient>
    <filter id="shadow" x="8" y="8" width="112" height="112" filterUnits="userSpaceOnUse" color-interpolation-filters="sRGB">
      <feDropShadow dx="0" dy="8" stdDeviation="8" flood-color="#5A8D68" flood-opacity="0.18"/>
    </filter>
  </defs>
  <g filter="url(#shadow)">
    <rect x="16" y="16" width="96" height="96" rx="28" fill="url(#card)"/>
    <rect x="16.75" y="16.75" width="94.5" height="94.5" rx="27.25" stroke="#B9E2C4" stroke-width="1.5"/>
    <ellipse cx="64" cy="38" rx="20" ry="11" fill="url(#coin)"/>
    <ellipse cx="64" cy="38" rx="20" ry="11" stroke="#2C536F" stroke-width="3"/>
    <path d="M44 38V68C44 74.1 53 79 64 79C75 79 84 74.1 84 68V38" fill="url(#base)"/>
    <path d="M44 38V68C44 74.1 53 79 64 79C75 79 84 74.1 84 68V38" stroke="#2C536F" stroke-width="3" stroke-linejoin="round"/>
    <path d="M57 56H71M64 49V63" stroke="#2C536F" stroke-width="3" stroke-linecap="round"/>
  </g>
</svg>
