<svg width="128" height="128" viewBox="0 0 128 128" fill="none" xmlns="http://www.w3.org/2000/svg">
  <defs>
    <linearGradient id="card" x1="18" y1="14" x2="110" y2="114" gradientUnits="userSpaceOnUse">
      <stop stop-color="#FCFEFF"/>
      <stop offset="1" stop-color="#E2F0FF"/>
    </linearGradient>
    <linearGradient id="seat" x1="28" y1="62" x2="44" y2="86" gradientUnits="userSpaceOnUse">
      <stop stop-color="#FFF8E8"/>
      <stop offset="1" stop-color="#E7D3A7"/>
    </linearGradient>
    <linearGradient id="seatMid" x1="54" y1="62" x2="70" y2="86" gradientUnits="userSpaceOnUse">
      <stop stop-color="#FFF7E4"/>
      <stop offset="1" stop-color="#DEC792"/>
    </linearGradient>
    <linearGradient id="seatRight" x1="80" y1="62" x2="96" y2="86" gradientUnits="userSpaceOnUse">
      <stop stop-color="#FFF9EA"/>
      <stop offset="1" stop-color="#E6D0A1"/>
    </linearGradient>
    <filter id="shadow" x="8" y="8" width="112" height="112" filterUnits="userSpaceOnUse" color-interpolation-filters="sRGB">
      <feDropShadow dx="0" dy="8" stdDeviation="8" flood-color="#5F86A8" flood-opacity="0.18"/>
    </filter>
  </defs>

  <g filter="url(#shadow)">
    <rect x="16" y="16" width="96" height="96" rx="28" fill="url(#card)"/>
    <rect x="16.75" y="16.75" width="94.5" height="94.5" rx="27.25" stroke="#BED7EE" stroke-width="1.5"/>

    <rect x="26" y="26" width="76" height="18" rx="9" fill="white" fill-opacity="0.58"/>

    <path d="M30 52C30 49.8 31.8 48 34 48H94C96.2 48 98 49.8 98 52V56H30V52Z" fill="#87B7DE" fill-opacity="0.4"/>

    <g>
      <rect x="30" y="60" width="18" height="18" rx="6" fill="url(#seat)"/>
      <rect x="56" y="60" width="18" height="18" rx="6" fill="url(#seatMid)"/>
      <rect x="82" y="60" width="18" height="18" rx="6" fill="url(#seatRight)"/>

      <rect x="30" y="80" width="18" height="7" rx="3.5" fill="#C6AB73"/>
      <rect x="56" y="80" width="18" height="7" rx="3.5" fill="#B99C63"/>
      <rect x="82" y="80" width="18" height="7" rx="3.5" fill="#C2A66E"/>

      <rect x="33" y="87" width="3" height="11" rx="1.5" fill="#7A8EA3"/>
      <rect x="42" y="87" width="3" height="11" rx="1.5" fill="#7A8EA3"/>
      <rect x="59" y="87" width="3" height="11" rx="1.5" fill="#7A8EA3"/>
      <rect x="68" y="87" width="3" height="11" rx="1.5" fill="#7A8EA3"/>
      <rect x="85" y="87" width="3" height="11" rx="1.5" fill="#7A8EA3"/>
      <rect x="94" y="87" width="3" height="11" rx="1.5" fill="#7A8EA3"/>
    </g>

    <path d="M30 59.5H100" stroke="#2C536F" stroke-width="3" stroke-linecap="round" opacity="0.8"/>
    <path d="M30 78.5H100" stroke="#2C536F" stroke-width="2.4" stroke-linecap="round" opacity="0.68"/>
  </g>
</svg>
