<svg width="320" height="280" viewBox="0 0 320 280" fill="none" xmlns="http://www.w3.org/2000/svg">
  <defs>
    <linearGradient id="cardGradMark" x1="30" y1="24" x2="250" y2="246" gradientUnits="userSpaceOnUse">
      <stop stop-color="#F9FDFF"/>
      <stop offset="1" stop-color="#DCEEFF"/>
    </linearGradient>
    <linearGradient id="skyGradMark" x1="78" y1="54" x2="208" y2="196" gradientUnits="userSpaceOnUse">
      <stop stop-color="#7CC9FF"/>
      <stop offset="1" stop-color="#3B8DE8"/>
    </linearGradient>
    <linearGradient id="greenGradMark" x1="104" y1="78" x2="196" y2="190" gradientUnits="userSpaceOnUse">
      <stop stop-color="#9BE8B4"/>
      <stop offset="1" stop-color="#4FB67A"/>
    </linearGradient>
    <linearGradient id="pulseGradMark" x1="92" y1="154" x2="238" y2="154" gradientUnits="userSpaceOnUse">
      <stop stop-color="#41A2FF"/>
      <stop offset="1" stop-color="#69D29A"/>
    </linearGradient>
    <filter id="softShadowMark" x="0" y="0" width="320" height="280" filterUnits="userSpaceOnUse" color-interpolation-filters="sRGB">
      <feDropShadow dx="0" dy="14" stdDeviation="14" flood-color="#6A96BD" flood-opacity="0.20"/>
    </filter>
  </defs>
  <g filter="url(#softShadowMark)">
    <rect x="24" y="26" width="258" height="228" rx="50" fill="url(#cardGradMark)"/>
    <rect x="25" y="27" width="256" height="226" rx="49" stroke="#B8D8EE" stroke-width="2"/>
    <rect x="72" y="62" width="162" height="154" rx="34" fill="#F7FBFF"/>
    <rect x="72" y="62" width="162" height="154" rx="34" stroke="#D3E8F7" stroke-width="2"/>
    <rect x="112" y="122" width="84" height="70" rx="18" fill="url(#skyGradMark)"/>
    <rect x="112" y="122" width="84" height="70" rx="18" stroke="#2D597D" stroke-width="3"/>
    <path d="M124 122L154 96L184 122" fill="url(#greenGradMark)"/>
    <path d="M124 122L154 96L184 122" stroke="#2D597D" stroke-width="3" stroke-linecap="round" stroke-linejoin="round"/>
    <rect x="142" y="144" width="24" height="48" rx="10" fill="#F6FBFF"/>
    <rect x="121" y="145" width="16" height="18" rx="6" fill="#DDF2FF"/>
    <rect x="171" y="145" width="16" height="18" rx="6" fill="#DDF2FF"/>
    <rect x="137" y="68" width="34" height="34" rx="12" fill="url(#greenGradMark)"/>
    <path d="M154 76V94M145 85H163" stroke="#FFFFFF" stroke-width="6" stroke-linecap="round"/>
    <path d="M94 154H120L132 138L145 171L158 148L174 148L186 134L197 154H238" stroke="url(#pulseGradMark)" stroke-width="8" stroke-linecap="round" stroke-linejoin="round"/>
    <circle cx="101" cy="154" r="10" fill="#EAF6FF" stroke="#98C8E8" stroke-width="2"/>
    <circle cx="205" cy="154" r="10" fill="#EAF6FF" stroke="#98C8E8" stroke-width="2"/>
  </g>
</svg>
